<svg xmlns="http://www.w3.org/2000/svg" viewBox="0 0 320 320"><path d="M153.25,0a.83.83,0,0,1-.66.29c-1.59,0-3.17.12-4.77.26-2.87.24-5.72.58-8.58.9-4.21.46-8.35,1.26-12.48,2.1s-7.94,1.89-11.87,3a147.36,147.36,0,0,0-17.31,6.2,144,144,0,0,0-16,7.89c-3.58,2.08-7.12,4.21-10.57,6.5q-5.59,3.72-10.84,7.93c-2.52,2-4.91,4.21-7.35,6.34-3.54,3.1-6.77,6.51-10,9.86-1.76,1.81-3.32,3.83-5,5.74-2.45,2.83-4.7,5.8-6.92,8.79-3,4-5.67,8.19-8.27,12.45C19.81,82.9,17.37,87.76,15,92.67c-1.93,4-3.6,8.21-5.14,12.43a162.61,162.61,0,0,0-5.47,18.32c-1,4-1.69,8.07-2.36,12.14-.45,2.8-.79,5.61-1.07,8.41-.19,1.82-.39,3.66-.43,5.51A13.53,13.53,0,0,1,0,153.85V0Z" style="fill:#fff"/><path d="M0,166.15c.09.17.26.34.27.51,0,1.15.28,2.28.29,3.41a85.58,85.58,0,0,0,.69,8.62,148.78,148.78,0,0,0,2.48,15A158.35,158.35,0,0,0,9.54,214c1.27,3.57,2.71,7.07,4.22,10.54,1.77,4.08,3.79,8,5.88,12A154.9,154.9,0,0,0,30.06,253.1c1.95,2.77,4,5.42,6.12,8.08,1.54,2,3.33,3.7,4.91,5.62,2.42,2.94,5.27,5.46,7.91,8.17a124.07,124.07,0,0,0,11.87,10.45c4.15,3.28,8.41,6.38,12.85,9.23,3.15,2,6.36,3.92,9.63,5.73,2.28,1.26,4.61,2.4,6.92,3.57A142.11,142.11,0,0,0,104,309.84a156.65,156.65,0,0,0,20,6.05c4.11.95,8.26,1.71,12.43,2.36,3,.46,6,.78,9,1.09a33.8,33.8,0,0,0,5.95.38c.52,0,1.11-.19,1.56.28H0Z" style="fill:#fff"/><path d="M320,152.65c-.47-.45-.32-1-.29-1.56a43.8,43.8,0,0,0-.36-7.6c-.45-3.84-1-7.67-1.65-11.48s-1.53-7.81-2.5-11.66c-.71-2.8-1.49-5.58-2.38-8.33-1.35-4.17-2.76-8.32-4.45-12.36-.81-1.93-1.6-3.87-2.47-5.77a164,164,0,0,0-11.11-20.32c-2.58-4-5.36-7.91-8.25-11.71-1.65-2.18-3.52-4.19-5.25-6.3-3.77-4.62-8.13-8.65-12.33-12.84-2.36-2.34-5-4.43-7.56-6.53q-3.58-2.94-7.3-5.67a145.19,145.19,0,0,0-13-8.51c-3.45-2-6.94-3.93-10.52-5.69a159.56,159.56,0,0,0-15.12-6.44,151.09,151.09,0,0,0-18-5.47c-4.59-1.07-9.22-2-13.89-2.67-2.9-.43-5.81-.75-8.71-1.06a38.31,38.31,0,0,0-6.25-.4c-.52,0-1.11.19-1.56-.28H320Z" style="fill:#fff"/><path d="M167.35,320a.8.8,0,0,1,.66-.29,44.26,44.26,0,0,0,6.41-.32c2.27-.21,4.54-.48,6.8-.77s4.22-.62,6.33-1c4-.65,8-1.56,11.95-2.53,4.12-1,8.18-2.2,12.18-3.57q6.87-2.37,13.49-5.31c3.53-1.55,7-3.28,10.36-5.08A158.13,158.13,0,0,0,253,290.29c2.76-2,5.47-4,8.07-6.13,1.92-1.58,3.8-3.22,5.66-4.87,2.35-2.08,4.68-4.21,6.85-6.45,2.63-2.71,5.23-5.45,7.68-8.35q4.4-5.19,8.43-10.64a133.23,133.23,0,0,0,8.59-13.12c2-3.42,3.92-6.84,5.62-10.4,2.49-5.22,4.78-10.52,6.76-16a160.62,160.62,0,0,0,5.18-17.47c1-4,1.69-8.06,2.36-12.13.45-2.69.77-5.4,1.09-8.11a43.58,43.58,0,0,0,.38-7.75c0-.52-.18-1.11.29-1.56V320Z" style="fill:#fff"/><path d="M219.72,144.09Q197.6,122,175.51,99.9c-.46-.46-.92-.92-1.41-1.34a21.44,21.44,0,0,0-29.33,1L100,144.35c-.39.38-.77.78-1.13,1.2A21.43,21.43,0,0,0,100.12,175l23.64,23.64,21,21A21.29,21.29,0,0,0,160.11,226a34,34,0,0,0,3.57-.31,21.57,21.57,0,0,0,11.71-6.21q14.56-14.59,29.15-29.16c5.16-5.16,10.34-10.29,15.47-15.48a20.94,20.94,0,0,0,6-19.22A21.18,21.18,0,0,0,219.72,144.09Zm-26.58,34.78q-7.12,7.19-14.31,14.32a26.72,26.72,0,0,1-37.66,0q-7.23-7.19-14.42-14.42a26.77,26.77,0,0,1-.11-37.45q7.26-7.37,14.63-14.63a26.78,26.78,0,0,1,37.45,0q7.25,7.17,14.42,14.42a26.74,26.74,0,0,1,0,37.77Z" style="fill:#f2f2f2"/><path d="M320,152.65a2.74,2.74,0,0,1-.14-1.6,82.37,82.37,0,0,0-.42-10.31,159.9,159.9,0,0,0-25.72-69.65,160.77,160.77,0,0,0-29.61-33.25A158.84,158.84,0,0,0,195.64,3.56,124.05,124.05,0,0,0,172.54.25,28.79,28.79,0,0,1,167.05,0h-13.8a29.78,29.78,0,0,1-5.34.26,128,128,0,0,0-27.18,4.23A159.79,159.79,0,0,0,49.22,44.2c-3.62,3.51-7.12,7.13-10.43,11a160.42,160.42,0,0,0-20,29.06A157,157,0,0,0,3.45,125.69,138.91,138.91,0,0,0,.43,146c-.17,2.62,0,5.26-.43,7.87v12.3a19.79,19.79,0,0,1,.27,4.14A96.65,96.65,0,0,0,1.54,184a160.91,160.91,0,0,0,58.1,101.06,163.83,163.83,0,0,0,33.15,20.61,156.41,156.41,0,0,0,33.92,11.28,117.64,117.64,0,0,0,20.3,2.8A36.82,36.82,0,0,1,153,320h14.4c.3-.26.67-.15,1-.15a101.31,101.31,0,0,0,14-.92,159.28,159.28,0,0,0,38-10.16,161.06,161.06,0,0,0,53.46-35.5c2.83-2.8,5.49-5.8,8.1-8.83A159.63,159.63,0,0,0,303.06,233a151.92,151.92,0,0,0,10.73-26.66c3.62-12.42,6.3-25,6.06-38,0-.33-.11-.7.15-1ZM32.62,117.21c.27-.3.56-.57.84-.85L115.7,34.11a6.67,6.67,0,0,1,2.94-2,5.1,5.1,0,0,1,5.15,1.2c2.83,2.75,5.64,5.52,8.36,8.38a5.26,5.26,0,0,1,.06,7.11c-.29.34-.62.65-.94,1Q90.22,90.84,49.14,131.92c-1.28,1.28-2.62,2.31-4.46,2.22a4.91,4.91,0,0,1-3.75-1.43c-2.77-2.74-5.56-5.47-8.25-8.28A5.23,5.23,0,0,1,32.62,117.21ZM132.87,279.14c-2.68,2.69-5.34,5.4-8.06,8.05a5.27,5.27,0,0,1-7.55,0c-.25-.24-.49-.49-.74-.74l-82-82-.63-.63a5.31,5.31,0,0,1-.06-7.87c2.55-2.61,5.15-5.17,7.73-7.75a5.24,5.24,0,0,1,4-1.69,5.05,5.05,0,0,1,3.54,1.36c.26.23.5.49.75.74Q91.07,229.83,132.3,271a6,6,0,0,1,2.08,4A5.21,5.21,0,0,1,132.87,279.14Zm34.55-4.45a10.14,10.14,0,0,1-7.56,3.36,9.46,9.46,0,0,1-6.17-2.32c-.42-.36-.81-.76-1.19-1.14Q98.95,221.06,45.41,167.52a10.62,10.62,0,0,1-3.35-6,9.52,9.52,0,0,1,2.11-7.7,17,17,0,0,1,1.24-1.31Q98.95,99,152.47,45.41a11,11,0,0,1,5.29-3.23,12.81,12.81,0,0,1,2.08-.23,9.52,9.52,0,0,1,6.7,2.51c.33.3.65.63,1,.94Q221,98.94,274.59,152.47a10.62,10.62,0,0,1,3.35,6,9.51,9.51,0,0,1-2,7.58,15.13,15.13,0,0,1-1.22,1.31Q221.06,221,167.42,274.69Zm119.19-71.13c-.27.29-.56.57-.84.85l-82,82c-.25.25-.49.51-.75.74a5.26,5.26,0,0,1-7.54,0c-2.73-2.64-5.39-5.36-8.07-8.05a5.47,5.47,0,0,1-.11-7.45c.21-.22.43-.43.64-.64q41.28-41.28,82.55-82.57a5.85,5.85,0,0,1,4.18-2,5.14,5.14,0,0,1,3.81,1.47c2.74,2.71,5.48,5.4,8.15,8.17A5.27,5.27,0,0,1,286.61,203.56Zm.9-79.08q-4.11,4.17-8.27,8.27a4.84,4.84,0,0,1-3.81,1.39A4.9,4.9,0,0,1,272,132.8c-.3-.26-.58-.55-.86-.83L188.91,49.73a6.43,6.43,0,0,1-2-2.93,5.22,5.22,0,0,1,1.29-5.27c2.69-2.74,5.39-5.49,8.16-8.16a5.29,5.29,0,0,1,7.34-.06c.26.23.5.48.75.73q41.18,41.18,82.35,82.34a6.1,6.1,0,0,1,2.12,3.84A5.13,5.13,0,0,1,287.51,124.48Z" style="fill:#f2f2f2"/></svg>