<svg xmlns="http://www.w3.org/2000/svg" viewBox="0 0 320 320"><path d="M0,166.15v-12.3c.4-2.61.26-5.25.43-7.87a138.91,138.91,0,0,1,3-20.29A157,157,0,0,1,18.76,84.22a160.42,160.42,0,0,1,20-29.06c3.31-3.83,6.81-7.45,10.43-11A159.79,159.79,0,0,1,120.73,4.49,128,128,0,0,1,147.91.26,29.78,29.78,0,0,0,153.25,0h13.8a28.79,28.79,0,0,0,5.49.25,124.05,124.05,0,0,1,23.1,3.31,158.84,158.84,0,0,1,68.47,34.28,160,160,0,0,1,47.38,68.81,158.44,158.44,0,0,1,7.95,34.09,82.37,82.37,0,0,1,.42,10.31,2.74,2.74,0,0,0,.14,1.6v14.7c-.26.3-.15.67-.15,1,.24,13-2.44,25.61-6.06,38A151.92,151.92,0,0,1,303.06,233a159.63,159.63,0,0,1-21.12,31.4c-2.61,3-5.27,6-8.1,8.83a161.06,161.06,0,0,1-53.46,35.5,159.28,159.28,0,0,1-38,10.16,101.31,101.31,0,0,1-14,.92c-.33,0-.7-.11-1,.15H153a36.82,36.82,0,0,0-5.94-.26,117.5,117.5,0,0,1-20.3-2.8,156.41,156.41,0,0,1-33.92-11.28,163.83,163.83,0,0,1-33.15-20.61A160.71,160.71,0,0,1,1.54,184a96.65,96.65,0,0,1-1.27-13.7A19.79,19.79,0,0,0,0,166.15Z" style="fill:#f2f2f2"/><path d="M153.25,0a.83.83,0,0,1-.66.29c-1.59,0-3.17.12-4.77.26-2.87.24-5.72.58-8.58.9-4.21.46-8.35,1.26-12.48,2.1s-7.94,1.89-11.87,3a147.36,147.36,0,0,0-17.31,6.2,144,144,0,0,0-16,7.89c-3.58,2.08-7.12,4.21-10.57,6.5q-5.59,3.72-10.84,7.93c-2.52,2-4.91,4.21-7.35,6.34-3.54,3.1-6.77,6.51-10,9.86-1.76,1.81-3.32,3.83-5,5.74-2.45,2.83-4.7,5.8-6.92,8.79-3,4-5.67,8.19-8.27,12.45C19.81,82.9,17.37,87.76,15,92.67c-1.93,4-3.6,8.21-5.14,12.43a162.61,162.61,0,0,0-5.47,18.32c-1,4-1.69,8.07-2.36,12.14-.45,2.8-.79,5.61-1.07,8.41-.19,1.82-.39,3.66-.43,5.51A13.53,13.53,0,0,1,0,153.85V0Z" style="fill:#fff"/><path d="M0,166.15c.09.17.26.34.27.51,0,1.15.28,2.28.29,3.41a85.58,85.58,0,0,0,.69,8.62,148.78,148.78,0,0,0,2.48,15A158.35,158.35,0,0,0,9.54,214c1.27,3.57,2.71,7.07,4.22,10.54,1.77,4.08,3.79,8,5.88,12A154.9,154.9,0,0,0,30.06,253.1c1.95,2.77,4,5.42,6.12,8.08,1.54,2,3.33,3.7,4.91,5.62,2.42,2.94,5.27,5.46,7.91,8.17a124.07,124.07,0,0,0,11.87,10.45c4.15,3.28,8.41,6.38,12.85,9.23,3.15,2,6.36,3.92,9.63,5.73,2.28,1.26,4.61,2.4,6.92,3.57A142.11,142.11,0,0,0,104,309.84a156.65,156.65,0,0,0,20,6.05c4.11.95,8.26,1.71,12.43,2.36,3,.46,6,.78,9,1.09a33.8,33.8,0,0,0,5.95.38c.52,0,1.11-.19,1.56.28H0Z" style="fill:#fff"/><path d="M320,152.65c-.47-.45-.32-1-.29-1.56a43.8,43.8,0,0,0-.36-7.6c-.45-3.84-1-7.67-1.65-11.48s-1.53-7.81-2.5-11.66c-.71-2.8-1.49-5.58-2.38-8.33-1.35-4.17-2.76-8.32-4.45-12.36-.81-1.93-1.6-3.87-2.47-5.77a164,164,0,0,0-11.11-20.32c-2.58-4-5.36-7.91-8.25-11.71-1.65-2.18-3.52-4.19-5.25-6.3-3.77-4.62-8.13-8.65-12.33-12.84-2.36-2.34-5-4.43-7.56-6.53q-3.58-2.94-7.3-5.67a145.19,145.19,0,0,0-13-8.51c-3.45-2-6.94-3.93-10.52-5.69a159.56,159.56,0,0,0-15.12-6.44,151.09,151.09,0,0,0-18-5.47c-4.59-1.07-9.22-2-13.89-2.67-2.9-.43-5.81-.75-8.71-1.06a38.31,38.31,0,0,0-6.25-.4c-.52,0-1.11.19-1.56-.28H320Z" style="fill:#fff"/><path d="M167.35,320a.8.8,0,0,1,.66-.29,44.26,44.26,0,0,0,6.41-.32c2.27-.21,4.54-.48,6.8-.77s4.22-.62,6.33-1c4-.65,8-1.56,11.95-2.53,4.12-1,8.18-2.2,12.18-3.57q6.87-2.37,13.49-5.31c3.53-1.55,7-3.28,10.36-5.08A158.13,158.13,0,0,0,253,290.29c2.76-2,5.47-4,8.07-6.13,1.92-1.58,3.8-3.22,5.66-4.87,2.35-2.08,4.68-4.21,6.85-6.45,2.63-2.71,5.23-5.45,7.68-8.35q4.4-5.19,8.43-10.64a133.23,133.23,0,0,0,8.59-13.12c2-3.42,3.92-6.84,5.62-10.4,2.49-5.22,4.78-10.52,6.76-16a160.62,160.62,0,0,0,5.18-17.47c1-4,1.69-8.06,2.36-12.13.45-2.69.77-5.4,1.09-8.11a43.58,43.58,0,0,0,.38-7.75c0-.52-.18-1.11.29-1.56V320Z" style="fill:#fff"/><path d="M44.68,134.14a4.91,4.91,0,0,1-3.75-1.43c-2.77-2.74-5.56-5.47-8.25-8.28a5.23,5.23,0,0,1-.06-7.22c.27-.3.56-.57.84-.85L115.7,34.11a6.67,6.67,0,0,1,2.94-2,5.1,5.1,0,0,1,5.15,1.2c2.83,2.75,5.64,5.52,8.36,8.38a5.26,5.26,0,0,1,.06,7.11c-.29.34-.62.65-.94,1Q90.22,90.84,49.14,131.92C47.86,133.2,46.52,134.23,44.68,134.14Z" style="fill:#333"/><path d="M45.54,186.49a5.05,5.05,0,0,1,3.54,1.36c.26.23.5.49.75.74Q91.07,229.83,132.3,271a6,6,0,0,1,2.08,4,5.21,5.21,0,0,1-1.51,4.09c-2.68,2.69-5.34,5.4-8.06,8.05a5.27,5.27,0,0,1-7.55,0c-.25-.24-.49-.49-.74-.74l-82-82-.63-.63a5.31,5.31,0,0,1-.06-7.87c2.55-2.61,5.15-5.17,7.73-7.75A5.24,5.24,0,0,1,45.54,186.49Z" style="fill:#333"/><path d="M185.86,275.28a5,5,0,0,1,1.41-3.56c.21-.22.43-.43.64-.64q41.28-41.28,82.55-82.57a5.85,5.85,0,0,1,4.18-2,5.14,5.14,0,0,1,3.81,1.47c2.74,2.71,5.48,5.4,8.15,8.17a5.27,5.27,0,0,1,0,7.44c-.27.29-.56.57-.84.85l-82,82c-.25.25-.49.51-.75.74a5.26,5.26,0,0,1-7.54,0c-2.73-2.64-5.39-5.36-8.07-8.05A5,5,0,0,1,185.86,275.28Z" style="fill:#333"/><path d="M275.43,134.14A4.9,4.9,0,0,1,272,132.8c-.3-.26-.58-.55-.86-.83L188.91,49.73a6.43,6.43,0,0,1-2-2.93,5.22,5.22,0,0,1,1.29-5.27c2.69-2.74,5.39-5.49,8.16-8.16a5.29,5.29,0,0,1,7.34-.06c.26.23.5.48.75.73q41.18,41.18,82.35,82.34a6.1,6.1,0,0,1,2.12,3.84,5.13,5.13,0,0,1-1.41,4.26q-4.11,4.17-8.27,8.27A4.84,4.84,0,0,1,275.43,134.14Z" style="fill:#333"/><path d="M277.94,158.5a10.62,10.62,0,0,0-3.35-6Q221,99,167.51,45.4c-.32-.31-.64-.64-1-.94a9.52,9.52,0,0,0-6.7-2.51,12.81,12.81,0,0,0-2.08.23,11,11,0,0,0-5.29,3.23Q99,99,45.41,152.49a17,17,0,0,0-1.24,1.31,9.52,9.52,0,0,0-2.11,7.7,10.62,10.62,0,0,0,3.35,6Q99,221,152.5,274.59c.38.38.77.78,1.19,1.14a9.46,9.46,0,0,0,6.17,2.32,10.14,10.14,0,0,0,7.56-3.36Q221,221,274.7,167.39a15.13,15.13,0,0,0,1.22-1.31A9.51,9.51,0,0,0,277.94,158.5ZM220,174.84c-5.13,5.19-10.31,10.32-15.47,15.48Q190,204.9,175.39,219.48a21.57,21.57,0,0,1-11.71,6.21,34,34,0,0,1-3.57.31,21.29,21.29,0,0,1-15.36-6.39l-21-21L100.12,175a21.43,21.43,0,0,1-1.21-29.43c.36-.42.74-.82,1.13-1.2l44.73-44.74a21.44,21.44,0,0,1,29.33-1c.49.42,1,.88,1.41,1.34q22.11,22.09,44.21,44.19A21.18,21.18,0,0,1,226,155.62,20.94,20.94,0,0,1,220,174.84Z" style="fill:#333"/><path d="M201,160a26.4,26.4,0,0,1-7.81,18.86q-7.12,7.19-14.31,14.32a26.72,26.72,0,0,1-37.66,0q-7.23-7.19-14.42-14.42a26.77,26.77,0,0,1-.11-37.45q7.26-7.37,14.63-14.63a26.78,26.78,0,0,1,37.45,0q7.25,7.17,14.42,14.42A26.5,26.5,0,0,1,201,160Z" style="fill:#333"/></svg>