<?xml version="1.0" encoding="utf-8"?>
<!-- Generator: Adobe Illustrator 24.1.2, SVG Export Plug-In . SVG Version: 6.00 Build 0)  -->
<svg version="1.1" id="Слой_1" xmlns="http://www.w3.org/2000/svg" xmlns:xlink="http://www.w3.org/1999/xlink" x="0px" y="0px"
	 viewBox="0 0 320 320" style="enable-background:new 0 0 320 320;" xml:space="preserve">
<style type="text/css">
	.st0{fill:#F2F2F2;}
</style>
<path class="st0" d="M219.7,144.1c-14.7-14.7-29.5-29.5-44.2-44.2c-0.5-0.5-0.9-0.9-1.4-1.3c-8.5-7.5-21.3-7-29.3,1L100,144.4
	c-0.4,0.4-0.8,0.8-1.1,1.2c-7.5,8.6-6.9,21.5,1.3,29.4l23.6,23.6l21,21c4,4.1,9.6,6.4,15.3,6.4c1.2,0,2.4-0.1,3.6-0.3
	c4.5-0.8,8.6-3,11.7-6.2c9.7-9.7,19.4-19.4,29.1-29.2c5.2-5.2,10.3-10.3,15.5-15.5c5.2-5,7.4-12.2,6-19.2
	C225.2,151.2,223,147.2,219.7,144.1z M193.1,178.9c-4.7,4.8-9.5,9.6-14.3,14.3c-10.4,10.3-27.2,10.3-37.7,0
	c-4.8-4.8-9.6-9.6-14.4-14.4c-10.2-10.4-10.3-27-0.1-37.4c4.8-4.9,9.7-9.8,14.6-14.6c10.4-10.2,27-10.2,37.4,0
	c4.8,4.8,9.6,9.6,14.4,14.4C203.6,151.5,203.6,168.4,193.1,178.9L193.1,178.9z"/>
<path class="st0" d="M320,152.6c-0.2-0.5-0.3-1.1-0.1-1.6c0.1-3.4-0.1-6.9-0.4-10.3c-3-24.9-11.8-48.8-25.7-69.7
	c-8.3-12.4-18.2-23.6-29.6-33.3C244.4,21,220.9,9.2,195.6,3.6c-7.6-1.8-15.3-2.9-23.1-3.3c-1.8,0.1-3.7,0-5.5-0.3h-13.8
	c-1.8,0.2-3.6,0.3-5.3,0.3c-9.2,0.4-18.3,1.8-27.2,4.2C93.9,11.3,69.2,25,49.2,44.2c-3.6,3.5-7.1,7.1-10.4,11
	c-7.7,8.9-14.4,18.7-20,29.1c-7,13-12.2,27-15.3,41.4c-1.5,6.7-2.5,13.5-3,20.3c-0.2,2.6,0,5.3-0.4,7.9v12.3
	c0.2,1.4,0.3,2.8,0.3,4.1c0.1,4.6,0.5,9.2,1.3,13.7c6.1,39.8,26.8,75.8,58.1,101.1c10.2,8.2,21.3,15.1,33.2,20.6
	c10.8,5,22.2,8.8,33.9,11.3c6.7,1.5,13.5,2.5,20.3,2.8c2-0.1,4,0,6,0.3h14.4c0.3-0.3,0.7-0.1,1-0.1c4.7,0,9.4-0.3,14-0.9
	c13-1.8,25.8-5.2,38-10.2c20-8.1,38.2-20.2,53.5-35.5c2.8-2.8,5.5-5.8,8.1-8.8c8.3-9.6,15.3-20.2,21.1-31.4
	c4.4-8.5,8-17.5,10.7-26.7c3.6-12.4,6.3-25,6.1-38c0-0.3-0.1-0.7,0.1-1V152.6z M32.6,117.2c0.3-0.3,0.6-0.6,0.8-0.8l82.2-82.3
	c0.8-0.9,1.8-1.6,2.9-2c1.8-0.6,3.8-0.1,5.2,1.2c2.8,2.8,5.6,5.5,8.4,8.4c1.9,2,1.9,5.1,0.1,7.1c-0.3,0.3-0.6,0.7-0.9,1
	c-27.4,27.4-54.7,54.7-82.1,82.1c-1.3,1.3-2.6,2.3-4.5,2.2c-1.4,0.1-2.8-0.4-3.8-1.4c-2.8-2.7-5.6-5.5-8.3-8.3
	C30.7,122.4,30.7,119.2,32.6,117.2z M132.9,279.1c-2.7,2.7-5.3,5.4-8.1,8c-2,2.1-5.4,2.1-7.5,0.1c0,0-0.1-0.1-0.1-0.1
	c-0.3-0.2-0.5-0.5-0.7-0.7l-82-82l-0.6-0.6c-2.2-2-2.4-5.3-0.4-7.5c0.1-0.1,0.2-0.3,0.4-0.4c2.5-2.6,5.2-5.2,7.7-7.8
	c1-1.1,2.5-1.7,4-1.7c1.3,0,2.6,0.5,3.5,1.4c0.3,0.2,0.5,0.5,0.8,0.7c27.5,27.5,55,54.9,82.5,82.4c1.2,1,1.9,2.4,2.1,4
	C134.5,276.5,134,278.1,132.9,279.1z M167.4,274.7c-1.9,2.1-4.7,3.4-7.6,3.4c-2.3,0-4.5-0.8-6.2-2.3c-0.4-0.4-0.8-0.8-1.2-1.1
	c-35.7-35.7-71.4-71.4-107.1-107.1c-1.8-1.6-2.9-3.7-3.3-6c-0.5-2.8,0.3-5.6,2.1-7.7c0.4-0.5,0.8-0.9,1.2-1.3
	c35.7-35.7,71.4-71.4,107.1-107.1c1.4-1.6,3.3-2.7,5.3-3.2c0.7-0.1,1.4-0.2,2.1-0.2c2.5-0.1,4.9,0.8,6.7,2.5c0.3,0.3,0.6,0.6,1,0.9
	c35.6,35.7,71.3,71.4,107.1,107.1c1.8,1.6,2.9,3.7,3.4,6c0.5,2.7-0.3,5.5-2,7.6c-0.4,0.5-0.8,0.9-1.2,1.3
	C238.9,203.1,203.2,238.9,167.4,274.7z M286.6,203.6c-0.3,0.3-0.6,0.6-0.8,0.9l-82,82c-0.3,0.3-0.5,0.5-0.8,0.7
	c-2,2.1-5.4,2.1-7.4,0.1c0,0-0.1-0.1-0.1-0.1c-2.7-2.6-5.4-5.4-8.1-8c-2-2.1-2-5.3-0.1-7.5c0.2-0.2,0.4-0.4,0.6-0.6
	c27.5-27.5,55-55,82.5-82.6c1.1-1.2,2.6-1.9,4.2-2c1.4-0.1,2.8,0.5,3.8,1.5c2.7,2.7,5.5,5.4,8.1,8.2
	C288.7,198.1,288.7,201.5,286.6,203.6C286.6,203.5,286.6,203.6,286.6,203.6z M287.5,124.5c-2.7,2.8-5.5,5.5-8.3,8.3
	c-1,1-2.4,1.5-3.8,1.4c-1.3,0-2.5-0.5-3.4-1.3c-0.3-0.3-0.6-0.6-0.9-0.8l-82.2-82.2c-0.9-0.8-1.6-1.8-2-2.9
	c-0.6-1.9-0.1-3.9,1.3-5.3c2.7-2.7,5.4-5.5,8.2-8.2c2-2,5.3-2,7.3-0.1c0.3,0.2,0.5,0.5,0.8,0.7c27.5,27.5,54.9,54.9,82.3,82.3
	c1.2,1,1.9,2.3,2.1,3.8C289.1,121.8,288.6,123.4,287.5,124.5L287.5,124.5z"/>
</svg>
