<?xml version="1.0" encoding="utf-8"?>
<!-- Generator: Adobe Illustrator 24.1.2, SVG Export Plug-In . SVG Version: 6.00 Build 0)  -->
<svg version="1.1" id="Слой_1" xmlns="http://www.w3.org/2000/svg" xmlns:xlink="http://www.w3.org/1999/xlink" x="0px" y="0px"
	 viewBox="0 0 320 320" style="enable-background:new 0 0 320 320;" xml:space="preserve">
<style type="text/css">
	.st0{fill:#333333;}
</style>
<path class="st0" d="M44.7,134.1c-1.4,0.1-2.8-0.4-3.8-1.4c-2.8-2.7-5.6-5.5-8.3-8.3c-1.9-2-2-5.2-0.1-7.2c0.3-0.3,0.6-0.6,0.8-0.8
	l82.2-82.3c0.8-0.9,1.8-1.6,2.9-2c1.8-0.6,3.8-0.1,5.2,1.2c2.8,2.8,5.6,5.5,8.4,8.4c1.9,2,1.9,5.1,0.1,7.1c-0.3,0.3-0.6,0.7-0.9,1
	c-27.4,27.4-54.7,54.7-82.1,82.1C47.9,133.2,46.5,134.2,44.7,134.1z"/>
<path class="st0" d="M45.5,186.5c1.3,0,2.6,0.5,3.5,1.4c0.3,0.2,0.5,0.5,0.8,0.7c27.5,27.5,55,55,82.5,82.4c1.2,1,1.9,2.4,2.1,4
	c0.1,1.5-0.4,3-1.5,4.1c-2.7,2.7-5.3,5.4-8.1,8c-2,2.1-5.4,2.1-7.5,0.1l-0.1-0.1c-0.3-0.2-0.5-0.5-0.7-0.7l-82-82l-0.6-0.6
	c-2.2-2-2.4-5.3-0.4-7.5c0.1-0.1,0.2-0.3,0.4-0.4c2.5-2.6,5.2-5.2,7.7-7.8C42.6,187.1,44,186.4,45.5,186.5z"/>
<path class="st0" d="M185.9,275.3c0-1.3,0.5-2.6,1.4-3.6c0.2-0.2,0.4-0.4,0.6-0.6c27.5-27.5,55-55,82.6-82.6c1.1-1.2,2.6-1.9,4.2-2
	c1.4-0.1,2.8,0.5,3.8,1.5c2.7,2.7,5.5,5.4,8.1,8.2c2,2.1,2,5.4,0,7.4c-0.3,0.3-0.6,0.6-0.8,0.9l-82,82c-0.3,0.3-0.5,0.5-0.8,0.7
	c-2,2.1-5.4,2.1-7.4,0.1l-0.1-0.1c-2.7-2.6-5.4-5.4-8.1-8C186.4,278.1,185.8,276.7,185.9,275.3z"/>
<path class="st0" d="M275.4,134.1c-1.3,0-2.5-0.5-3.4-1.3c-0.3-0.3-0.6-0.6-0.9-0.8l-82.2-82.2c-0.9-0.8-1.6-1.8-2-2.9
	c-0.6-1.9-0.1-3.9,1.3-5.3c2.7-2.7,5.4-5.5,8.2-8.2c2-2,5.3-2,7.3-0.1c0.3,0.2,0.5,0.5,0.8,0.7c27.5,27.5,54.9,54.9,82.3,82.3
	c1.2,1,1.9,2.3,2.1,3.8c0.2,1.6-0.3,3.1-1.4,4.3c-2.7,2.8-5.5,5.5-8.3,8.3C278.2,133.7,276.8,134.3,275.4,134.1z"/>
<path class="st0" d="M277.9,158.5c-0.4-2.3-1.6-4.4-3.4-6c-35.7-35.7-71.4-71.4-107.1-107.1c-0.3-0.3-0.6-0.6-1-0.9
	c-1.8-1.7-4.2-2.6-6.7-2.5c-0.7,0-1.4,0.1-2.1,0.2c-2,0.5-3.9,1.7-5.3,3.2c-35.6,35.7-71.3,71.4-107,107.1c-0.4,0.4-0.9,0.9-1.2,1.3
	c-1.8,2.1-2.6,4.9-2.1,7.7c0.4,2.3,1.6,4.4,3.3,6c35.7,35.7,71.4,71.4,107.1,107.1c0.4,0.4,0.8,0.8,1.2,1.1c1.7,1.5,3.9,2.3,6.2,2.3
	c2.9,0,5.6-1.2,7.6-3.4c35.7-35.8,71.5-71.6,107.3-107.3c0.4-0.4,0.8-0.8,1.2-1.3C277.7,164,278.4,161.2,277.9,158.5z M220,174.8
	c-5.1,5.2-10.3,10.3-15.5,15.5c-9.7,9.7-19.4,19.4-29.1,29.2c-3.2,3.2-7.3,5.4-11.7,6.2c-1.2,0.2-2.4,0.3-3.6,0.3
	c-5.8,0-11.3-2.3-15.4-6.4l-21-21L100.1,175c-8.1-7.9-8.7-20.9-1.2-29.4c0.4-0.4,0.7-0.8,1.1-1.2l44.7-44.7c8-8,20.8-8.5,29.3-1
	c0.5,0.4,1,0.9,1.4,1.3c14.7,14.7,29.5,29.5,44.2,44.2c3.2,3.1,5.4,7.1,6.3,11.5C227.4,162.6,225.2,169.9,220,174.8z"/>
<path class="st0" d="M201,160c0,7.1-2.8,13.9-7.8,18.9c-4.7,4.8-9.5,9.6-14.3,14.3c-10.4,10.3-27.2,10.3-37.7,0
	c-4.8-4.8-9.6-9.6-14.4-14.4c-10.2-10.4-10.3-27-0.1-37.4c4.8-4.9,9.7-9.8,14.6-14.6c10.4-10.2,27-10.2,37.4,0
	c4.8,4.8,9.6,9.6,14.4,14.4C198.2,146.1,201,152.9,201,160z"/>
</svg>
